<?xml version="1.0" encoding="UTF-8"?>
<svg xmlns="http://www.w3.org/2000/svg" version="1.1" xmlns:xlink="http://www.w3.org/1999/xlink" viewBox="0 0 151.7 141.5">
  <!-- Generator: Adobe Illustrator 29.5.1, SVG Export Plug-In . SVG Version: 2.1.0 Build 141)  -->
  <defs>
    <style>
      .st0 {
        fill: #fff;
      }

      .st1 {
        opacity: .2;
      }

      .st2 {
        isolation: isolate;
      }

      .st3 {
        fill: #eaeaea;
      }

      .st4 {
        fill: #ffd81a;
      }

      .st5 {
        fill: #e60000;
      }
    </style>
  </defs>
  <g id="Sombra">
    <g class="st1">
      <image class="st2" width="631" height="366" transform="translate(0 53.3) scale(.2)" xlink:href="Player-1.png"/>
    </g>
  </g>
  <g id="Cuerpo">
    <g id="Elementos_animados">
      <g>
        <path class="st5" d="M84.6,87.4h-19.7c-11.5,0-20.8-9.3-20.8-20.8v-16.7c0-16.9,13.7-30.6,30.6-30.6h0c16.9,0,30.6,13.7,30.6,30.6v16.7c0,11.5-9.3,20.8-20.8,20.8Z"/>
        <rect class="st4" x="45.8" y="87.4" width="16.4" height="9" rx="4.5" ry="4.5"/>
        <rect class="st4" x="87.4" y="87.4" width="16.4" height="9" rx="4.5" ry="4.5"/>
        <path class="st4" d="M84.2,48.4c0,9.1-18.6,9.1-18.6,0,6.2,1.7,12.4,1.7,18.6,0Z"/>
        <path class="st3" d="M112.2,55.6c0,46.1-75,46.1-75,0h4.2l7.7-2.2,8.1,2.2h30.4l5,2.6,4.9-2.6h14.7Z"/>
        <path class="st4" d="M62.3,47.5c0-12.4,25.1-12.4,25.1,0-8.4,1.6-16.7,1.6-25.1,0Z"/>
      </g>
    </g>
  </g>
  <g id="Cabello">
    <path class="st5" d="M76.4,17.7c8.8-7.4,3.8-24.6-5.8-14.7,5.1-1.9,11.2,8.1,5.8,14.7Z"/>
  </g>
  <g id="Ojo_blanco">
    <circle class="st0" cx="92.9" cy="36.3" r="10.8"/>
    <circle class="st0" cx="56.5" cy="36.3" r="10.7"/>
  </g>
  <g id="Ojo_negro">
    <circle cx="57.2" cy="35.8" r="7.3"/>
    <circle cx="92.9" cy="35.8" r="7.3"/>
  </g>
</svg>