<?xml version="1.0" encoding="UTF-8"?>
<svg id="Capa_2" data-name="Capa 2" xmlns="http://www.w3.org/2000/svg" xmlns:xlink="http://www.w3.org/1999/xlink" viewBox="0 0 116.13 205.32">
  <defs>
    <style>
      .cls-1 {
        fill: #274c56;
      }

      .cls-2 {
        fill: #12373f;
      }

      .cls-3 {
        fill: url(#Degradado_sin_nombre_17);
      }

      .cls-4 {
        fill: #264a54;
      }

      .cls-5 {
        fill: #325a64;
      }
    </style>
    <linearGradient id="Degradado_sin_nombre_17" data-name="Degradado sin nombre 17" x1="74.12" y1="74.37" x2="70.95" y2="116.65" gradientUnits="userSpaceOnUse">
      <stop offset="0" stop-color="#2e545f"/>
      <stop offset="1" stop-color="#12373f"/>
    </linearGradient>
  </defs>
  <g id="Capa_2-2" data-name="Capa 2">
    <g>
      <path class="cls-2" d="M78.66,125.4l-10.08,9.4s5.65,3.5,10.87,3.1,9.8-2.39,9.8-7.56-9.02-6.39-10.59-4.93Z"/>
      <g>
        <g>
          <polygon class="cls-5" points="58.14 199.14 0 191.1 0 197.14 58.2 205.32 58.15 199.14 58.14 199.14"/>
          <g>
            <polygon class="cls-1" points="58.14 199.14 57.97 199.12 57.92 205.32 116.13 197.14 116.13 191.1 58.15 199.14 58.14 199.14"/>
            <polygon class="cls-2" points="116.13 191.1 58.78 174.84 0 191.1 57.97 199.12 58.14 199.14 58.15 199.14 116.13 191.1 116.13 191.1"/>
          </g>
        </g>
        <polygon class="cls-5" points="58.59 195.72 11.52 188.05 11.52 150.34 58.59 157.09 58.59 195.72"/>
        <polygon class="cls-1" points="58.24 195.72 105.31 188.05 105.31 150.34 58.24 157.04 58.24 195.72"/>
        <polygon class="cls-2" points="0 145.69 11.07 150.34 58.24 157.04 105.31 150.34 116.13 145.69 58.2 153.88 0 145.69"/>
        <g>
          <polygon class="cls-5" points="58.14 147.7 0 139.66 0 145.7 58.2 153.88 58.15 147.7 58.14 147.7"/>
          <g>
            <polygon class="cls-1" points="58.14 147.7 57.97 147.68 57.92 153.88 116.13 145.7 116.13 139.66 58.15 147.7 58.14 147.7"/>
            <polygon class="cls-2" points="116.13 139.66 58.78 132.89 0 139.66 57.97 147.68 58.14 147.7 58.15 147.7 116.13 139.66 116.13 139.66"/>
          </g>
        </g>
        <path class="cls-1" d="M74.97,21.88s4.1,14.22-4.49,22.65c-8.59,8.42-35.15,21.2-38.54,33.83-3.4,12.63-2.09,20.53,6.4,31.42,8.48,10.89,28.39,13.37,28.39,13.37,0,0,2.05-.93,4.73-8.96-9.59,3.78-24.41.85-29.17-13.12-4.76-13.98,13.69-28.74,35.75-45.16,22.05-16.43-3.64-55.89-3.64-55.89,0,0-13.44,18.42-14.25,27.79-.57,6.57.77,15.54,2.84,22.99,4.73-1.35,5.22-2.68,5.22-2.68,0,0-4.59-12.91-3.18-16.35,2.01-4.93,9.96-9.13,9.96-9.87Z"/>
        <g>
          <path class="cls-4" d="M78.96,111.86s0,.04,0,.06c0-.02,0-.04,0-.06Z"/>
          <path class="cls-4" d="M77.84,97.02c-.54-.75-1.08-1.41-1.62-1.98.75,5.33,1.42,9.94,1.89,12.5.23-1.38,1.27-8.36-.28-10.51Z"/>
          <path class="cls-4" d="M78.86,111.16c-.13-.81-.28-1.57-.47-2.28,0,0,0,0,0,0,.19.78.34,1.54.47,2.28Z"/>
          <path class="cls-2" d="M73.35,75.45c-1.24-7.7-2.41-13.47-3.2-12.82l-4.57,3.04s.8,3.95,1.74,9.79c1.81-.32,3.86-.41,6.03-.02Z"/>
          <path class="cls-4" d="M78.96,111.86c-.03-.24-.07-.47-.1-.7-.12-.74-.28-1.5-.47-2.28,0,0,0,0,0,0-.1-.38-.2-.76-.32-1.1,0,0,.02-.09.04-.24-.48-2.55-1.14-7.16-1.89-12.5-2.41-2.57-4.76-3.38-6.73-3.26,1.43,14.21,1.96,29.04-3.31,33.29-5.27,4.26-13.53,7.24-18.87,5.85,1.59-1.94,3.07-7.95,0-10.66-3.07-2.71-8.94-4.56-12.17-2.74s-7.38,5.35-5.31,9.49c2.07,4.13,4.27,7.48,10.8,9,6.53,1.52,21.03,1.44,25.61-.19,4.58-1.63,11.11-7.49,12-11.64.59-2.75,1.13-5.84.98-9.43-.05-.97-.14-1.93-.26-2.84,0-.02,0-.04,0-.06Z"/>
          <path class="cls-4" d="M78.86,111.16c.04.23.07.47.1.7-.03-.23-.06-.47-.1-.7Z"/>
          <path class="cls-4" d="M79.23,114.76c-.04-.91-.12-1.86-.26-2.84.12.91.21,1.87.26,2.84Z"/>
          <path class="cls-3" d="M77.84,76.99c-1.51-.79-3.02-1.27-4.48-1.54-2.16-.39-4.22-.3-6.03.02-4.02.71-6.82,2.52-6.82,2.52,0,0-7.75,3.48-9.06,10.74-1.3,7.27,3.57,11.05,6.49,13,2.92,1.95,8.12,2.75,8.95,1.08.83-1.67-.86-3.2-1.78-4.94s-1-3.39,1.12-4.91c.88-.63,1.99-1.09,3.26-1.17,1.97-.12,4.31.69,6.73,3.26.54.57,1.08,1.23,1.62,1.98,1.54,2.16.5,9.13.28,10.51.1.54.19,1,.28,1.34.18.7.34,1.47.47,2.28.04.24.07.47.1.7,0,.02,0,.04,0,.06.14.98.22,1.93.26,2.84.14,2.66.01,5.45-.42,7.83,0,0,10.45-6.77,14.32-18.85,3.73-11.63-6.54-22.18-15.29-26.75Z"/>
          <path class="cls-4" d="M78.39,108.88c-.08-.34-.18-.8-.28-1.34-.03.15-.04.24-.04.24.12.34.22.72.32,1.1Z"/>
        </g>
      </g>
    </g>
  </g>
</svg>