<?xml version="1.0" encoding="UTF-8"?>
<svg xmlns="http://www.w3.org/2000/svg" version="1.1" xmlns:xlink="http://www.w3.org/1999/xlink" viewBox="0 0 105.4 71.3">
  <!-- Generator: Adobe Illustrator 29.5.1, SVG Export Plug-In . SVG Version: 2.1.0 Build 141)  -->
  <defs>
    <style>
      .st0 {
        stroke-width: .7px;
      }

      .st0, .st1, .st2, .st3, .st4, .st5, .st6 {
        fill: none;
      }

      .st0, .st1, .st3, .st4, .st5, .st6 {
        stroke-miterlimit: 10;
      }

      .st0, .st1, .st5, .st6 {
        stroke: #282828;
        stroke-linecap: round;
      }

      .st7 {
        fill: #141414;
      }

      .st1 {
        stroke-width: .6px;
      }

      .st8 {
        fill: #066a00;
      }

      .st9 {
        fill: url(#Degradado_sin_nombre_2);
      }

      .st3 {
        stroke: #e2e2e2;
      }

      .st3, .st4, .st6 {
        stroke-width: 1px;
      }

      .st10 {
        fill: #212121;
      }

      .st4 {
        stroke: #a33;
      }

      .st11 {
        fill: #0e0e0e;
      }

      .st12 {
        fill: url(#Degradado_sin_nombre);
      }

      .st5 {
        stroke-width: .7px;
      }

      .st13 {
        fill: #e2175b;
      }

      .st14 {
        fill: #0a0a0a;
      }

      .st15 {
        clip-path: url(#clippath);
      }

      .st16 {
        fill: #101010;
      }
    </style>
    <linearGradient id="Degradado_sin_nombre" data-name="Degradado sin nombre" x1="46.8" y1="30.1" x2="70.5" y2="100.3" gradientTransform="translate(0 74) scale(1 -1)" gradientUnits="userSpaceOnUse">
      <stop offset="0" stop-color="#212121"/>
      <stop offset="1" stop-color="#757575"/>
    </linearGradient>
    <clipPath id="clippath">
      <polygon class="st2" points="96.6 64.1 92.3 67.5 92.3 56.1 96.6 54.4 96.6 64.1"/>
    </clipPath>
    <linearGradient id="Degradado_sin_nombre_2" data-name="Degradado sin nombre 2" x1="40.5" y1="14.5" x2="50.8" y2="74.3" gradientTransform="translate(0 74) scale(1 -1)" gradientUnits="userSpaceOnUse">
      <stop offset="0" stop-color="#5d767c"/>
      <stop offset="1" stop-color="#95b1b5"/>
    </linearGradient>
  </defs>
  <g id="Capa_2">
    <g id="Elementos_animados">
      <g>
        <path class="st12" d="M0,8.6S13.1-.5,20.2,0c6.1.4,60.6.1,75.5,0,2.1,0,3.8,1.7,3.8,3.7v57.8l-12.1,9.7H6L0,8.6Z"/>
        <path class="st10" d="M3.5,8.6h80.8c1.8,0,3.3,1.5,3.3,3.3v56.1c0,1.8-1.5,3.3-3.3,3.3H6.2c-3.3,0-6-2.7-6-6V11.9c0-1.8,1.5-3.3,3.3-3.3Z"/>
        <line class="st6" x1="90.6" y1="25.1" x2="96.3" y2="20.1"/>
        <line class="st5" x1="92.3" y1="30.6" x2="96.3" y2="27.3"/>
        <line class="st1" x1="93.1" y1="26.4" x2="96.6" y2="23.3"/>
        <g>
          <polygon class="st7" points="96.6 64.1 92.3 67.4 92.3 56.1 96.6 54.4 96.6 64.1"/>
          <g class="st15">
            <g>
              <polygon class="st8" points="94.2 54.4 91.2 56.3 91.2 64.4 94.2 62.2 94.2 54.4"/>
              <path class="st4" d="M91.6,60.1c1.8-1.9,3.6-2.4,2.3-4.7"/>
              <path class="st3" d="M90.3,59.8c1.8-1.9,3.6-2.4,2.3-4.7"/>
            </g>
          </g>
        </g>
        <polygon class="st7" points="95.9 64 91.8 67.4 102.8 69.8 105.4 66 95.9 64"/>
      </g>
    </g>
  </g>
  <g id="Capa_4">
    <rect class="st9" x="6.9" y="13.4" width="74" height="53.1" rx="10.4" ry="10.4"/>
  </g>
  <g id="Capa_5">
    <line class="st6" x1="17.6" y1="63.4" x2="23.3" y2="58.4"/>
    <line class="st6" x1="23.3" y1="62.3" x2="29" y2="57.3"/>
    <line class="st0" x1="60.2" y1="17.6" x2="64" y2="14.2"/>
  </g>
  <g id="Capa_3">
    <g>
      <path class="st14" d="M16.1,37.4c.4-2.9,3.8-4.2,5.9-2.2,1.9,1.8,3.5,5.3,5.2,7.4.8.3,1.6,0,1.6-.9v-6.8c0-.9,2.4-.9,2.4,0v8.7c0,.4-1.4,1.8-1.9,1.9-4.6,1.4-6.2-5.2-8.8-7.7s-1.6,4.2-1.8,5.3c-.5,3.3-5.6,3.8-6.7.3-.4-1.3-.6-7.3,0-8.3.7-1.2,2.4-.6,2.4,0v7c0,.5,1.6,1,1.6.3,0-1.5-.2-3.5,0-4.9h0Z"/>
      <path class="st11" d="M64.7,41.3c-2.5-.5-3.6-4.5-1.3-6.2,1.5-1.1,8.2-1.1,10.3-.8,2.1.2,2.5,2.1,1,2.6-1.9.6-8.6-.5-9.6.4-1,.7,0,1.5.8,1.6,3.4.5,11.4-1.9,10.1,4.4-.2.9-1.6,2.4-2.5,2.4h-10.6c-.9,0-.9-2.4,0-2.4h10c.6,0,1-1.9.3-1.9-2.2,0-6.6.4-8.4,0h0Z"/>
      <path class="st11" d="M35.2,41.3c-.9-.2-2.4-1.6-2.5-2.6-.5-2.8,1.3-4.2,3.9-4.5,1.6-.1,6.7-.2,8.1,0,1.9.4,1.3,2.7.3,2.7h-9.5c-.5,0-.7,1.5.3,1.8,2.9.9,9.8-1.8,10.6,2.7.3,1.5-.9,4.1-2.5,4.1h-10.6c-.9,0-.9-2.4,0-2.4h10c.8,0,.8-1.9,0-1.9-2.1,0-6.3.4-8.1,0h0Z"/>
      <path class="st16" d="M58.6,39.2v-4.2c0-.5,2.2-.9,2.4.5.2,1.1.2,6.2,0,7.3-.2,1.6-1.6,2.7-3.1,2.9-2.1.2-7.3.2-9.5,0s-1.7-2.2-.3-2.4c2.5-.5,7.4.6,9.7,0,1-.3.8-1.6.3-1.6h-8.9c-.6,0-1.8-1.6-2-2.3-.4-1.2-.7-4.8,1-5,2.2-.2,1,4.8,1.8,4.8h8.5,0Z"/>
      <path class="st13" d="M14.4,32.3c-1.1,1.1-3.3-.3-2.1-1.7s3.2.6,2.1,1.7Z"/>
    </g>
  </g>
</svg>