<?xml version="1.0" encoding="UTF-8"?>
<svg xmlns="http://www.w3.org/2000/svg" version="1.1" xmlns:xlink="http://www.w3.org/1999/xlink" viewBox="0 0 151.7 141.5">
  <!-- Generator: Adobe Illustrator 29.5.1, SVG Export Plug-In . SVG Version: 2.1.0 Build 141)  -->
  <defs>
    <style>
      .st0 {
        fill: #fff;
      }

      .st1 {
        opacity: .2;
      }

      .st2 {
        fill: #ff55f7;
      }

      .st3 {
        stroke-width: 2.8px;
      }

      .st3, .st4 {
        fill: none;
        stroke: #000;
        stroke-linecap: round;
        stroke-miterlimit: 10;
      }

      .st5 {
        fill: #eaeaea;
      }

      .st6 {
        fill: #ffd81a;
      }

      .st4 {
        stroke-width: 2.3px;
      }

      .st7 {
        fill: #e60000;
      }
    </style>
  </defs>
  <g id="Cuerpo">
    <g id="Elementos_animados">
      <g>
        <rect class="st6" x="45.8" y="87.4" width="16.4" height="9" rx="4.5" ry="4.5"/>
        <rect class="st6" x="87.4" y="87.4" width="16.4" height="9" rx="4.5" ry="4.5"/>
        <path class="st6" d="M84.2,48.4c0,9.1-18.6,9.1-18.6,0,6.2,1.7,12.4,1.7,18.6,0Z"/>
        <path class="st6" d="M62.3,47.5c0-12.4,25.1-12.4,25.1,0-8.4,1.6-16.7,1.6-25.1,0Z"/>
      </g>
    </g>
    <path class="st2" d="M85.7,87.3h-19.7c-11.4,0-20.7-9.3-20.7-20.7v-16.7c0-16.9,13.7-30.5,30.5-30.5h0c16.9,0,30.5,13.7,30.5,30.5v16.7c0,11.4-9.3,20.7-20.7,20.7Z"/>
    <path class="st6" d="M85,48.3c0,9.1-18.6,9.1-18.6,0,6.2,1.7,12.4,1.7,18.6,0Z"/>
    <path class="st5" d="M113.2,55.5c0,46.1-74.8,46.1-74.8,0h4.2l7.7-2.2,8,2.2h30.3l5,2.6,4.9-2.6h14.6,0Z"/>
    <path class="st6" d="M63.2,47.4c0-12.3,25-12.3,25,0-8.3,1.6-16.7,1.6-25,0Z"/>
  </g>
  <g id="Cabello">
    <path class="st7" d="M76.4,17.7c8.8-7.4,3.8-24.6-5.8-14.7,5.1-1.9,11.2,8.1,5.8,14.7Z"/>
    <path class="st2" d="M70.6,3c5.1-1.9,11.2,8.1,5.8,14.6,8.8-7.4,3.8-24.6-5.8-14.6"/>
  </g>
  <g id="Ojo_blanco">
    <circle class="st0" cx="92.9" cy="36.3" r="10.8"/>
    <circle class="st0" cx="56.5" cy="36.3" r="10.7"/>
    <path class="st4" d="M47,30.1c-1.1-.6-2-1.3-2.5-2.1"/>
    <path class="st3" d="M45.9,33.6c-1.4.1-2.7-.2-3.7-1.6"/>
    <path class="st3" d="M45.5,37.1c-1.4.4-2.8.5-4-.3"/>
    <g>
      <path class="st4" d="M102.8,30.1c1.1-.6,2-1.3,2.5-2.1"/>
      <path class="st3" d="M103.8,33.6c1.4.1,2.7-.2,3.7-1.6"/>
      <path class="st3" d="M104.2,37.1c1.4.4,2.8.5,4-.3"/>
    </g>
  </g>
  <g id="Ojo_negro">
    <circle cx="57.2" cy="35.8" r="7.3"/>
    <circle cx="92.9" cy="35.8" r="7.3"/>
    <g class="st1">
      <image width="152" height="89" transform="translate(0 53.5)" xlink:href="Player_2-1.png"/>
    </g>
  </g>
</svg>