<?xml version="1.0" encoding="UTF-8"?>
<svg xmlns="http://www.w3.org/2000/svg" version="1.1" viewBox="0 0 417 417">
  <!-- Generator: Adobe Illustrator 29.5.1, SVG Export Plug-In . SVG Version: 2.1.0 Build 141)  -->
  <defs>
    <style>
      .st0 {
        fill: #2d2d2d;
      }

      .st1 {
        fill: #4c4c4c;
      }

      .st2, .st3 {
        isolation: isolate;
      }

      .st4 {
        fill: #ffd880;
        stroke: #4c4c4c;
        stroke-miterlimit: 10;
      }

      .st3 {
        fill: #ffdd92;
        mix-blend-mode: hard-light;
        opacity: .5;
      }
    </style>
  </defs>
  <g class="st2">
    <g id="Lamp">
      <g class="st2">
        <g id="Capa_2">
          <g id="Capa_7">
            <g>
              <polygon class="st4" points="213.4 216.6 203.6 216.6 199.6 200.3 217.3 200.3 213.4 216.6"/>
              <polygon class="st1" points="219.5 189.7 198.6 189.7 193.1 200.3 222.5 200.3 219.5 189.7"/>
              <path class="st0" d="M209.5,175.9h0c1.1,0,1.9.9,1.9,1.9v7c0,1.1-.9,1.9-1.9,1.9h0c-1.1,0-1.9-.9-1.9-1.9v-7c0-1.1.9-1.9,1.9-1.9Z"/>
              <polygon class="st0" points="215.9 185 203.1 185 198.6 189.7 219.6 189.7 215.9 185"/>
            </g>
          </g>
        </g>
      </g>
    </g>
    <g id="Light">
      <circle class="st3" cx="208.4" cy="208.4" r="58.3"/>
    </g>
  </g>
</svg>